<svg id="图层_1" data-name="图层 1" xmlns="http://www.w3.org/2000/svg" viewBox="0 0 2433.83 304.6"><defs><style>.cls-1{fill:#155f98;}.cls-2{fill:#fefefe;}.cls-3{font-size:259.88px;fill:#fff;font-family:Avenir-Heavy, Avenir;font-weight:800;letter-spacing:-0.05em;}.cls-4{font-family:Avenir-Medium, Avenir;font-weight:500;}.cls-5{fill:#9f9faa;font-family:Avenir-Light, Avenir;font-weight:300;}</style></defs><path class="cls-1" d="M55.65,0H222.42a55.64,55.64,0,0,1,55.65,55.65V222.42a55.64,55.64,0,0,1-55.65,55.65H55.65A55.64,55.64,0,0,1,0,222.42V55.65A55.64,55.64,0,0,1,55.65,0Z"/><path class="cls-2" d="M215.61,39.57l.63.31a34,34,0,0,1,8,6.13l.42.39C230.89,52.24,234.78,61.55,235,70a39,39,0,0,1-10.62,28.42,36.2,36.2,0,0,1-15,9.19l-.45.15a41.12,41.12,0,0,1-12.53,1.7h-5.28c-5.57-.07-5.57-.07-10.86,1.5l-1,.41a48.65,48.65,0,0,0-11,6.48l-.52.39L165.38,120c-1.25.95-2.51,1.89-3.78,2.8-1.88,1.34-3.72,2.74-5.55,4.14-.85.65-1.7,1.29-2.56,1.92a90.14,90.14,0,0,0-7.9,6.72l-.53.49c-2.47,2.35-4.82,5.38-4.91,8.9.18,4.14,3.72,6.83,6.55,9.5.62.55,1.26,1.07,1.91,1.58s1.08.91,1.61,1.4c1.22,1.11,2.52,2.12,3.82,3.13l1.38,1.08q3.6,2.81,7.29,5.48l.51.38c2.16,1.57,4.34,3.12,6.55,4.62l1.06.73,1.84,1.25.57.39c6.33,4.26,14.11,4.06,21.45,4.08,5.2,0,10.18.16,15.14,1.89l.81.28a37.4,37.4,0,0,1,13,8.17l.32.29c6.36,6,10.82,14.87,11.08,23.74,0,.81,0,1.63,0,2.44v.52a32.44,32.44,0,0,1-.74,7.68l-.12.51a37.41,37.41,0,0,1-9.44,17.27l-.3.32a37.16,37.16,0,0,1-15.26,9.46l-.73.26a36,36,0,0,1-20.61.19l-.79-.22a37.64,37.64,0,0,1-21.76-17.76,34.11,34.11,0,0,1-4.39-16.51c0-.49,0-1,0-1.47,0-1.21,0-2.43.05-3.64.14-11.49-2.34-20.71-10.52-29.18a45.65,45.65,0,0,0-4.23-3.88c-.63-.5-1.23-1-1.83-1.54-5.7-4.73-12.46-8.2-20-8.13H123a27.72,27.72,0,0,0-9.22,1.67l-.78.26a51.92,51.92,0,0,0-11,5.27,39.56,39.56,0,0,1-10.65,4.68l-.73.21a35.21,35.21,0,0,1-18.83-.44l-.7-.18A35.71,35.71,0,0,1,52.68,168l-.54-.7a37.42,37.42,0,0,1-6.8-15.3l-.15-.77a37.8,37.8,0,0,1,6-27.05c.49-.67,1-1.32,1.52-2l.3-.37a37.61,37.61,0,0,1,22.59-13.41l.87-.16A36.77,36.77,0,0,1,100,112.69l.71.4c.9.51,1.78,1,2.66,1.6,5.3,3.32,11.65,5.79,18,5.83h.5c9.68.08,17-2.6,24-9.44,1.51-1.49,3-3,4.35-4.61l.34-.4a46.59,46.59,0,0,0,9-15.38l.17-.49A26.55,26.55,0,0,0,161,77.4a17.34,17.34,0,0,1-.17-2.59v-.55a40.85,40.85,0,0,1,1.18-12l.14-.5a29.71,29.71,0,0,1,1-2.84l.17-.43a38.43,38.43,0,0,1,20.33-20.66A37.15,37.15,0,0,1,215.61,39.57Z"/><path class="cls-1" d="M92.45,130.47c.55.43,1.06.87,1.57,1.34l.51.45a17,17,0,0,1,5.33,11.55c.14,4.86-.91,9.44-4.28,13.12l-.56.61a17.19,17.19,0,0,1-4.33,3.39l-.66.36a18.16,18.16,0,0,1-13.34,1.19,18.84,18.84,0,0,1-11-9.53,18.21,18.21,0,0,1-1-13.37,18.08,18.08,0,0,1,27.71-9.11Z"/><path class="cls-1" d="M205.83,199.61l.61.28a18.2,18.2,0,0,1,8.54,9.79,18.16,18.16,0,0,1-12.28,23.48,18.08,18.08,0,0,1-22.38-13.38,18.82,18.82,0,0,1,2.39-13.73,21.47,21.47,0,0,1,1.56-2l.51-.68A18.12,18.12,0,0,1,205.83,199.61Z"/><path class="cls-1" d="M209.51,58.48c3.29,2.84,6,7,6.3,11.4.19,5.49-.78,10.33-4.59,14.53a17.4,17.4,0,0,1-11.8,5.69c-5.69.14-10.19-1.29-14.4-5.22-3.71-3.85-5.13-8.77-5.05-14a17.11,17.11,0,0,1,5.63-11.74l.44-.45C192.57,52.47,202.83,53,209.51,58.48Z"/><text class="cls-3" transform="translate(379.47 242.23)">Unla<tspan class="cls-4" x="491.95" y="0"> </tspan><tspan class="cls-5" x="551.2" y="0">MCP Gateway</tspan></text></svg>