<svg id="图层_1" data-name="图层 1" xmlns="http://www.w3.org/2000/svg" viewBox="0 0 2437.25 304.6"><defs><style>.cls-1{fill:#155f98;}.cls-2{fill:#fefefe;}.cls-3{font-size:259.88px;fill:#09090b;font-family:Avenir-Heavy, Avenir;font-weight:800;letter-spacing:-0.05em;}.cls-4{font-family:Avenir-Medium, Avenir;font-weight:500;}.cls-5{fill:#52525c;font-family:Avenir-Light, Avenir;font-weight:300;}</style></defs><path class="cls-1" d="M59.07,0H225.85a55.64,55.64,0,0,1,55.64,55.65V222.42a55.64,55.64,0,0,1-55.64,55.65H59.07A55.65,55.65,0,0,1,3.42,222.42V55.65A55.65,55.65,0,0,1,59.07,0Z"/><path class="cls-2" d="M219,39.57l.64.31a34.14,34.14,0,0,1,8,6.13l.43.39c6.18,5.84,10.07,15.15,10.33,23.57a39,39,0,0,1-10.63,28.42,36.08,36.08,0,0,1-15,9.19l-.44.15a41.16,41.16,0,0,1-12.53,1.7h-5.29c-5.57-.07-5.57-.07-10.86,1.5l-1,.41a48.65,48.65,0,0,0-11,6.48l-.52.39L168.8,120c-1.24.95-2.5,1.89-3.78,2.8-1.88,1.34-3.71,2.74-5.55,4.14q-1.26,1-2.55,1.92a87.3,87.3,0,0,0-7.9,6.72l-.54.49c-2.47,2.35-4.81,5.38-4.91,8.9.18,4.14,3.72,6.83,6.56,9.5.61.55,1.25,1.07,1.9,1.58s1.09.91,1.61,1.4c1.23,1.11,2.52,2.12,3.83,3.13l1.38,1.08q3.59,2.81,7.28,5.48l.52.38c2.16,1.57,4.33,3.12,6.54,4.62l1.07.73,1.83,1.25.57.39c6.33,4.26,14.11,4.06,21.45,4.08,5.2,0,10.19.16,15.14,1.89l.82.28a37.49,37.49,0,0,1,13,8.17l.31.29c6.37,6,10.83,14.87,11.08,23.74,0,.81,0,1.63,0,2.44v.52a32.44,32.44,0,0,1-.74,7.68l-.11.51a37.41,37.41,0,0,1-9.44,17.27l-.3.32a37.23,37.23,0,0,1-15.26,9.46l-.74.26a35.94,35.94,0,0,1-20.6.19l-.8-.22a37.62,37.62,0,0,1-21.75-17.76,34.12,34.12,0,0,1-4.4-16.51c0-.49,0-1,0-1.47,0-1.21,0-2.43,0-3.64.15-11.49-2.33-20.71-10.52-29.18a44.41,44.41,0,0,0-4.23-3.88c-.62-.5-1.23-1-1.83-1.54-5.7-4.73-12.46-8.2-20-8.13h-1.38A27.72,27.72,0,0,0,117.2,171l-.77.26a52.23,52.23,0,0,0-11,5.27,39.43,39.43,0,0,1-10.65,4.68l-.72.21a35.24,35.24,0,0,1-18.84-.44l-.7-.18A35.79,35.79,0,0,1,56.1,168l-.53-.7a37.29,37.29,0,0,1-6.8-15.3l-.15-.77a37.74,37.74,0,0,1,6-27.05c.49-.67,1-1.32,1.52-2l.3-.37A37.64,37.64,0,0,1,79,108.47l.86-.16a36.8,36.8,0,0,1,23.59,4.38l.7.4c.9.51,1.79,1,2.66,1.6,5.3,3.32,11.65,5.79,18,5.83h.5c9.69.08,17-2.6,24-9.44,1.51-1.49,3-3,4.35-4.61l.35-.4a46.73,46.73,0,0,0,9-15.38l.17-.49a26.43,26.43,0,0,0,1.27-12.8,18.78,18.78,0,0,1-.17-2.59v-.55a40.85,40.85,0,0,1,1.18-12l.14-.5c.28-1,.61-1.9,1-2.84l.16-.43a38.46,38.46,0,0,1,20.33-20.66A37.14,37.14,0,0,1,219,39.57Z"/><path class="cls-1" d="M95.87,130.47c.55.43,1.07.87,1.58,1.34l.51.45a16.9,16.9,0,0,1,5.32,11.55c.15,4.86-.91,9.44-4.28,13.12l-.55.61a17.24,17.24,0,0,1-4.34,3.39l-.65.36a18.18,18.18,0,0,1-13.35,1.19,18.79,18.79,0,0,1-11-9.53,18.11,18.11,0,0,1-1-13.37,18.07,18.07,0,0,1,27.7-9.11Z"/><path class="cls-1" d="M209.25,199.61l.62.28a18.19,18.19,0,0,1,8.53,9.79,18.17,18.17,0,0,1-12.27,23.48,18.07,18.07,0,0,1-22.38-13.38,18.82,18.82,0,0,1,2.39-13.73,21.36,21.36,0,0,1,1.55-2l.52-.68A18.1,18.1,0,0,1,209.25,199.61Z"/><path class="cls-1" d="M212.93,58.48c3.29,2.84,6,7,6.31,11.4.18,5.49-.79,10.33-4.6,14.53a17.36,17.36,0,0,1-11.79,5.69c-5.69.14-10.19-1.29-14.41-5.22-3.7-3.85-5.13-8.77-5-14A17,17,0,0,1,189,59.13l.44-.45C196,52.47,206.25,53,212.93,58.48Z"/><text class="cls-3" transform="translate(382.9 242.23)">Unla<tspan class="cls-4" x="491.95" y="0"> </tspan><tspan class="cls-5" x="551.2" y="0">MCP Gateway</tspan></text></svg>