<?xml version="1.0" encoding="UTF-8"?>
<svg version="1.1" xmlns="http://www.w3.org/2000/svg" width="1251" height="1251">
<path d="M0 0 C412.83 0 825.66 0 1251 0 C1251 412.83 1251 825.66 1251 1251 C838.17 1251 425.34 1251 0 1251 C0 838.17 0 425.34 0 0 Z " fill="#155F98" transform="translate(0,0)"/>
<path d="M0 0 C0.94230469 0.46664062 1.88460937 0.93328125 2.85546875 1.4140625 C16.42770186 8.2703457 28.11221348 18.51546483 39 29 C39.6290625 29.5775 40.258125 30.155 40.90625 30.75 C68.74894775 57.01669599 86.2471762 98.92115564 87.37890625 136.80859375 C88.50726678 186.12183308 72.90946136 228.25343832 39.57421875 264.6484375 C21.21379556 283.70000591 -2.82408802 298.07375237 -28 306 C-28.65629395 306.21253418 -29.31258789 306.42506836 -29.98876953 306.64404297 C-48.4574573 312.55141877 -67.06463756 314.23354543 -86.36328125 314.30078125 C-87.12831907 314.30393593 -87.8933569 314.30709061 -88.68157768 314.31034088 C-95.83575891 314.33509687 -102.98970536 314.32757239 -110.14379883 314.28491211 C-135.19779557 313.93862179 -135.19779557 313.93862179 -159 321 C-160.51476904 321.62448936 -162.03255229 322.24170807 -163.55297852 322.85229492 C-181.29200871 330.03786021 -197.80079222 340.43280074 -213 352 C-213.77134277 352.58652344 -214.54268555 353.17304687 -215.33740234 353.77734375 C-218.88886733 356.48192617 -222.4376884 359.18988513 -225.98071289 361.90551758 C-231.59016934 366.19699574 -237.25407912 370.39338302 -243 374.5 C-251.44961354 380.54325722 -259.70569748 386.82411716 -267.94921875 393.14453125 C-271.75580667 396.06044523 -275.59240598 398.93099759 -279.44970703 401.77929688 C-291.99258885 411.05936566 -303.63023465 421.32766677 -315 432 C-315.79019531 432.72445313 -316.58039063 433.44890625 -317.39453125 434.1953125 C-328.52293641 444.75852721 -339.062167 458.42065299 -339.5 474.25 C-338.68349157 492.86639212 -322.74290905 504.99559711 -310 517 C-307.22785741 519.47036504 -304.35172789 521.78762919 -301.42578125 524.07421875 C-298.90564474 526.07490684 -296.55229259 528.1935839 -294.1875 530.375 C-288.68529451 535.37621975 -282.86090398 539.92164295 -276.98193359 544.46386719 C-274.90433027 546.07415052 -272.83622051 547.69604957 -270.76953125 549.3203125 C-260.00387159 557.76644452 -249.0620735 565.94693883 -238 574 C-237.23123535 574.56106445 -236.4624707 575.12212891 -235.67041016 575.70019531 C-225.95939275 582.78255849 -216.17959605 589.75013061 -206.2265625 596.48876953 C-204.62740206 597.57416461 -203.0314152 598.66424099 -201.4375 599.75732422 C-198.69329861 601.6385413 -195.94119013 603.50770653 -193.1875 605.375 C-192.34018311 605.95822021 -191.49286621 606.54144043 -190.61987305 607.14233398 C-162.13300199 626.32996623 -127.1407157 625.42312445 -94.11627197 625.50531006 C-70.73151988 625.57017668 -48.29208443 626.23967286 -26 634 C-24.79601562 634.41894531 -23.59203125 634.83789062 -22.3515625 635.26953125 C-0.32923246 643.55776175 19.05126964 655.70734953 36 672 C36.46857422 672.44279297 36.93714844 672.88558594 37.41992188 673.34179688 C66.06218994 700.49422005 86.13270877 740.22958516 87.26300049 780.10881042 C87.32756556 783.78132703 87.33051167 787.45205061 87.3125 791.125 C87.30976578 792.2823616 87.30976578 792.2823616 87.30697632 793.46310425 C87.260323 805.19983194 86.77043296 816.54584052 84 828 C83.82307617 828.74942871 83.64615234 829.49885742 83.46386719 830.27099609 C76.32046516 859.7637466 62.01923597 886.13435185 41 908 C40.55720703 908.46857422 40.11441406 908.93714844 39.65820312 909.41992188 C20.59804883 929.52590082 -2.90697262 943.04341025 -29 952 C-30.08796875 952.38027344 -31.1759375 952.76054688 -32.296875 953.15234375 C-61.97599665 962.93464131 -95.08597971 962.32673571 -125 954 C-126.77503906 953.51273438 -126.77503906 953.51273438 -128.5859375 953.015625 C-169.83335214 940.45018743 -205.85212643 910.90981649 -226.453125 873.12866211 C-238.61723581 850.10582669 -246.70118747 825.07293064 -246.22549438 798.85017967 C-246.18599159 796.64631447 -246.1673618 794.44301192 -246.15307617 792.23884583 C-246.11368472 786.76950481 -246.04113633 781.30071387 -245.96887207 775.83172607 C-245.3002772 724.14987953 -256.47249641 682.66455919 -293.29296875 644.58203125 C-299.35237187 638.38299513 -305.4984907 632.50209659 -312.31640625 627.12890625 C-315.13709475 624.89124215 -317.84035666 622.54370363 -320.5625 620.1875 C-346.19360956 598.9051134 -376.61217804 583.29807181 -410.42724609 583.60888672 C-412.50034288 583.62500267 -414.57149168 583.60889832 -416.64453125 583.58984375 C-431.10123247 583.56373862 -444.43864657 586.37850537 -458.125 591.0625 C-459.27444092 591.45171631 -460.42388184 591.84093262 -461.6081543 592.24194336 C-479.01872283 598.28185409 -495.52890923 606.05086962 -511.0703125 615.95703125 C-526.13039338 625.52527812 -541.84963097 632.17684126 -559 637 C-560.07636719 637.31710937 -561.15273438 637.63421875 -562.26171875 637.9609375 C-589.51053671 645.47016155 -620.12285715 643.85011013 -647 636 C-648.03253906 635.72542969 -649.06507813 635.45085938 -650.12890625 635.16796875 C-682.32963299 626.16163522 -713.01902504 604.7774776 -733 578 C-734.19496094 576.43572266 -734.19496094 576.43572266 -735.4140625 574.83984375 C-750.6323739 554.54678804 -761.18747252 530.94005952 -766 506 C-766.22300781 504.85273437 -766.44601562 503.70546875 -766.67578125 502.5234375 C-773.35229741 460.10257974 -763.95190982 416.3480784 -739.85546875 380.83984375 C-737.64803392 377.82102746 -735.35924227 374.90164041 -733 372 C-732.55817383 371.45134277 -732.11634766 370.90268555 -731.66113281 370.33740234 C-705.67482509 338.26592236 -670.5623999 317.68317613 -630 310 C-628.07800781 309.63261719 -628.07800781 309.63261719 -626.1171875 309.2578125 C-589.71561246 303.6159548 -551.99903158 310.91682634 -520 329 C-518.95328125 329.58523438 -517.9065625 330.17046875 -516.828125 330.7734375 C-512.78516166 333.08819112 -508.80910158 335.49217037 -504.86328125 337.96875 C-481.02901 352.91907696 -452.45379227 364.02124697 -423.9765625 364.203125 C-423.23717941 364.21018463 -422.49779633 364.21724426 -421.73600769 364.22451782 C-378.16425507 364.54628725 -345.17356166 352.49868724 -313.58203125 321.734375 C-306.79528098 315.03205877 -300.19393152 308.25755444 -294 301 C-293.49202881 300.40944824 -292.98405762 299.81889648 -292.46069336 299.21044922 C-274.62186996 278.29998249 -260.88730749 255.99091519 -252 230 C-251.74001221 229.27329102 -251.48002441 228.54658203 -251.2121582 227.79785156 C-245.04463269 210.18745725 -242.21351812 188.66934832 -245.49780273 170.20068359 C-246.1081176 166.31092766 -246.2182156 162.47083665 -246.2734375 158.54296875 C-246.28592026 157.73083923 -246.29840302 156.91870972 -246.31126404 156.08197021 C-246.54178259 137.46369206 -246.13342492 120.04433035 -241 102 C-240.79713379 101.26652344 -240.59426758 100.53304687 -240.38525391 99.77734375 C-239.14818759 95.42022463 -237.66183645 91.21156836 -236 87 C-235.75024414 86.36336426 -235.50048828 85.72672852 -235.24316406 85.07080078 C-218.63488299 43.34681437 -184.74223333 10.02990598 -143.7890625 -7.87890625 C-97.47613354 -27.27257465 -43.88851176 -23.99441128 0 0 Z " fill="#FEFEFE" transform="translate(970,178)"/>
<path d="M0 0 C2.47018504 1.91277079 4.78832407 3.907786 7.08984375 6.01953125 C7.84523438 6.68339844 8.600625 7.34726562 9.37890625 8.03125 C23.7824775 21.42013668 32.4696817 40.44617246 33.33984375 59.9921875 C33.98985128 81.84820986 29.24408344 102.47941676 14.08984375 119.01953125 C13.26613281 119.92316406 12.44242188 120.82679688 11.59375 121.7578125 C5.69102671 127.94520613 -0.36717251 132.912681 -7.91015625 137.01953125 C-8.88339844 137.55320312 -9.85664063 138.086875 -10.859375 138.63671875 C-29.49026805 148.03398225 -50.90217348 149.89324403 -70.91015625 144.01953125 C-92.57964696 136.42900048 -110.03160858 121.83909216 -120.17651367 101.13256836 C-128.88787024 82.57853864 -131.26661727 60.62416165 -124.63769531 40.984375 C-117.04429691 20.47710307 -102.84231979 2.68050272 -82.91015625 -6.98046875 C-55.36815537 -18.61249625 -24.95811249 -16.98491682 0 0 Z " fill="#155F98" transform="translate(415.91015625,586.98046875)"/>
<path d="M0 0 C0.91136719 0.41894531 1.82273437 0.83789062 2.76171875 1.26953125 C20.22133628 9.91216646 34.51008044 27.21392638 41.15625 45.34765625 C48.04886739 67.01472665 46.81975679 89.97970479 36.34350586 110.24536133 C25.24213125 130.48221585 7.9584961 143.98758691 -14.0546875 150.96875 C-35.78081359 156.59566035 -57.78650004 153.50167829 -77.08203125 142.421875 C-96.43292943 130.76189779 -109.166061 112.46817748 -114.75 90.75 C-119.0726035 68.82651926 -115.46999926 48.06411725 -104 29 C-101.83963039 25.82167845 -99.51723131 22.89919924 -97 20 C-96.236875 18.989375 -95.47375 17.97875 -94.6875 16.9375 C-70.94885821 -9.00938754 -31.2096951 -15.2338232 0 0 Z " fill="#155F98" transform="translate(926,898)"/>
<path d="M0 0 C14.81014889 12.78444463 26.84549755 31.27943251 28.35546875 51.27734375 C29.19988798 75.98578469 24.83273528 97.77788268 7.6953125 116.65625 C-6.33082043 131.52028508 -24.81145823 141.31708481 -45.37890625 142.25 C-70.98133842 142.88228351 -91.21875807 136.43677981 -110.1796875 118.78125 C-126.85058815 101.4530737 -133.27134832 79.3187895 -132.88671875 55.7578125 C-132.04825656 34.73069887 -122.36148519 17.33622799 -107.5546875 2.90625 C-106.89984375 2.24238281 -106.245 1.57851563 -105.5703125 0.89453125 C-76.20043794 -27.03195204 -30.0596433 -24.63603793 0 0 Z " fill="#155F98" transform="translate(942.5546875,263.09375)"/>
</svg>
